<svg width="22" height="22" viewBox="0 0 22 22" fill="none" xmlns="http://www.w3.org/2000/svg">
<g clip-path="url(#clip0_87_4)">
<rect width="22" height="22" fill="#2E5A75"/>
<path d="M15.8125 15.8125V17.875H5.84375C5.02324 17.875 4.23633 17.5491 3.65614 16.9689C3.07595 16.3887 2.75 15.6018 2.75 14.7812C2.75 13.9607 3.07595 13.1738 3.65614 12.5936C4.23633 12.0134 5.02324 11.6875 5.84375 11.6875H6.1875V10.3125H5.84375C4.65856 10.3125 3.52192 10.7833 2.68387 11.6214C1.84581 12.4594 1.375 13.5961 1.375 14.7812C1.375 15.9664 1.84581 17.1031 2.68387 17.9411C3.52192 18.7792 4.65856 19.25 5.84375 19.25H15.8125V21.3125H21.3125V15.8125H15.8125ZM19.9375 19.9375H17.1875V17.1875H19.9375V19.9375Z" fill="white"/>
<path d="M14.4375 15.125H13.0625V13.0625H8.9375V15.125H7.5625V13.0625C7.56286 12.6979 7.70785 12.3484 7.96563 12.0906C8.22341 11.8328 8.57294 11.6879 8.9375 11.6875H13.0625C13.4271 11.6879 13.7766 11.8328 14.0344 12.0906C14.2922 12.3484 14.4371 12.6979 14.4375 13.0625V15.125ZM11 11C10.5921 11 10.1933 10.879 9.85414 10.6524C9.51496 10.4258 9.2506 10.1037 9.0945 9.72679C8.93839 9.34991 8.89755 8.93521 8.97713 8.53513C9.05671 8.13504 9.25315 7.76754 9.54159 7.47909C9.83004 7.19065 10.1975 6.99421 10.5976 6.91463C10.9977 6.83505 11.4124 6.87589 11.7893 7.032C12.1662 7.18811 12.4883 7.45246 12.7149 7.79164C12.9415 8.13081 13.0625 8.52958 13.0625 8.9375C13.062 9.48434 12.8445 10.0086 12.4578 10.3953C12.0711 10.782 11.5468 10.9995 11 11ZM11 8.25C10.864 8.25 10.7311 8.29032 10.618 8.36587C10.505 8.44141 10.4169 8.54878 10.3648 8.67441C10.3128 8.80003 10.2992 8.93826 10.3257 9.07163C10.3522 9.20499 10.4177 9.32749 10.5139 9.42364C10.61 9.51979 10.7325 9.58526 10.8659 9.61179C10.9992 9.63832 11.1375 9.6247 11.2631 9.57267C11.3887 9.52063 11.4961 9.43251 11.5716 9.31946C11.6472 9.2064 11.6875 9.07348 11.6875 8.9375C11.6873 8.75522 11.6148 8.58046 11.4859 8.45157C11.357 8.32267 11.1823 8.25018 11 8.25Z" fill="white"/>
<path d="M16.1562 2.75H6.1875V0.6875H0.6875V6.1875H6.1875V4.125H16.1562C16.9768 4.125 17.7637 4.45095 18.3439 5.03114C18.9241 5.61133 19.25 6.39824 19.25 7.21875C19.25 8.03926 18.9241 8.82617 18.3439 9.40636C17.7637 9.98655 16.9768 10.3125 16.1562 10.3125H15.8125V11.6875H16.1562C17.3414 11.6875 18.4781 11.2167 19.3161 10.3786C20.1542 9.54058 20.625 8.40394 20.625 7.21875C20.625 6.03356 20.1542 4.89692 19.3161 4.05887C18.4781 3.22081 17.3414 2.75 16.1562 2.75ZM4.8125 4.8125H2.0625V2.0625H4.8125V4.8125Z" fill="white"/>
</g>
<defs>
<clipPath id="clip0_87_4">
<rect width="22" height="22" fill="white"/>
</clipPath>
</defs>
</svg>
