<svg width="18" height="18" viewBox="0 0 18 18" fill="none" xmlns="http://www.w3.org/2000/svg">
<path d="M7.40937 2.15238C7.78212 0.615875 9.96788 0.615875 10.3406 2.15238C10.3966 2.3832 10.5062 2.59756 10.6606 2.778C10.8151 2.95844 11.0099 3.09987 11.2293 3.19078C11.4487 3.28168 11.6865 3.31949 11.9233 3.30114C12.1601 3.28278 12.3892 3.20876 12.592 3.08512C13.9421 2.26262 15.4883 3.80787 14.6658 5.15887C14.5423 5.36157 14.4684 5.59054 14.4501 5.82718C14.4318 6.06381 14.4695 6.30142 14.5603 6.52071C14.6511 6.73999 14.7924 6.93476 14.9726 7.08917C15.1529 7.24359 15.367 7.35329 15.5976 7.40937C17.1341 7.78212 17.1341 9.96788 15.5976 10.3406C15.3668 10.3966 15.1524 10.5062 14.972 10.6606C14.7916 10.8151 14.6501 11.0099 14.5592 11.2293C14.4683 11.4487 14.4305 11.6865 14.4489 11.9233C14.4672 12.1601 14.5412 12.3892 14.6649 12.592C15.4874 13.9421 13.9421 15.4883 12.5911 14.6658C12.3884 14.5423 12.1595 14.4684 11.9228 14.4501C11.6862 14.4318 11.4486 14.4695 11.2293 14.5603C11.01 14.6511 10.8152 14.7924 10.6608 14.9726C10.5064 15.1529 10.3967 15.367 10.3406 15.5976C9.96788 17.1341 7.78212 17.1341 7.40937 15.5976C7.35345 15.3668 7.24381 15.1524 7.08938 14.972C6.93495 14.7916 6.7401 14.6501 6.52068 14.5592C6.30126 14.4683 6.06348 14.4305 5.82669 14.4489C5.58989 14.4672 5.36078 14.5412 5.158 14.6649C3.80787 15.4874 2.26175 13.9421 3.08425 12.5911C3.20771 12.3884 3.28161 12.1595 3.29992 11.9228C3.31824 11.6862 3.28046 11.4486 3.18966 11.2293C3.09886 11.01 2.9576 10.8152 2.77736 10.6608C2.59712 10.5064 2.38299 10.3967 2.15238 10.3406C0.615875 9.96788 0.615875 7.78212 2.15238 7.40937C2.3832 7.35345 2.59756 7.24381 2.778 7.08938C2.95844 6.93495 3.09987 6.7401 3.19078 6.52068C3.28168 6.30126 3.31949 6.06348 3.30114 5.82669C3.28278 5.58989 3.20876 5.36078 3.08512 5.158C2.26262 3.80787 3.80787 2.26175 5.15887 3.08425C6.03387 3.61625 7.16787 3.1455 7.40937 2.15238Z" stroke="white" stroke-width="2" stroke-linecap="round" stroke-linejoin="round"/>
<path d="M6.25 8.875C6.25 9.57119 6.52656 10.2389 7.01884 10.7312C7.51113 11.2234 8.17881 11.5 8.875 11.5C9.57119 11.5 10.2389 11.2234 10.7312 10.7312C11.2234 10.2389 11.5 9.57119 11.5 8.875C11.5 8.17881 11.2234 7.51113 10.7312 7.01884C10.2389 6.52656 9.57119 6.25 8.875 6.25C8.17881 6.25 7.51113 6.52656 7.01884 7.01884C6.52656 7.51113 6.25 8.17881 6.25 8.875Z" stroke="white" stroke-width="2" stroke-linecap="round" stroke-linejoin="round"/>
</svg>
