<svg width="16" height="20" viewBox="0 0 16 20" fill="none" xmlns="http://www.w3.org/2000/svg">
<path d="M9.83331 1.75V5.41667C9.83331 5.65978 9.92989 5.89294 10.1018 6.06485C10.2737 6.23676 10.5069 6.33333 10.75 6.33333H14.4166" stroke="#F7FCFF" stroke-width="2" stroke-linecap="round" stroke-linejoin="round"/>
<path d="M14.4167 10V16.4167C14.46 16.7626 14.3914 17.1133 14.2209 17.4175C14.0504 17.7216 13.787 17.9631 13.4692 18.1066C13.1515 18.2501 12.7961 18.288 12.4552 18.2149C12.1144 18.1417 11.8059 17.9613 11.575 17.7C11.4335 17.519 11.2527 17.3726 11.0462 17.2719C10.8398 17.1713 10.6131 17.1189 10.3833 17.1189C10.1536 17.1189 9.92693 17.1713 9.72045 17.2719C9.51397 17.3726 9.33314 17.519 9.19167 17.7C9.05021 17.881 8.86937 18.0274 8.6629 18.1281C8.45642 18.2287 8.22972 18.2811 8.00001 18.2811C7.77029 18.2811 7.54359 18.2287 7.33711 18.1281C7.13064 18.0274 6.9498 17.881 6.80834 17.7C6.66687 17.519 6.48604 17.3726 6.27956 17.2719C6.07309 17.1713 5.84639 17.1189 5.61667 17.1189C5.38696 17.1189 5.16026 17.1713 4.95378 17.2719C4.7473 17.3726 4.56647 17.519 4.42501 17.7C4.19413 17.9613 3.88565 18.1417 3.54476 18.2149C3.20388 18.288 2.84852 18.2501 2.53078 18.1066C2.21303 17.9631 1.9496 17.7216 1.7791 17.4175C1.6086 17.1133 1.53999 16.7626 1.58334 16.4167V3.58333C1.58334 3.0971 1.77649 2.63079 2.12031 2.28697C2.46413 1.94315 2.93044 1.75 3.41667 1.75H9.83334L14.4167 6.33333V10.2292" stroke="#F7FCFF" stroke-width="2" stroke-linecap="round" stroke-linejoin="round"/>
</svg>
