<svg width="42" height="42" viewBox="0 0 42 42" fill="none" xmlns="http://www.w3.org/2000/svg">
<circle cx="21" cy="21" r="21" fill="white"/>
<circle cx="21" cy="21" r="20.8" stroke="black" stroke-opacity="0.3" stroke-width="0.4"/>
<g clip-path="url(#clip0_21_2)">
<path fill-rule="evenodd" clip-rule="evenodd" d="M13.2083 17.375C13.2083 15.4411 13.9766 13.5865 15.344 12.219C16.7115 10.8516 18.5661 10.0833 20.5 10.0833C22.4339 10.0833 24.2885 10.8516 25.656 12.219C27.0234 13.5865 27.7917 15.4411 27.7917 17.375V21.2958L29.6896 25.0917C29.777 25.2664 29.8182 25.4605 29.8094 25.6557C29.8007 25.8508 29.7421 26.0405 29.6394 26.2066C29.5367 26.3728 29.3933 26.5099 29.2226 26.605C29.052 26.7001 28.8599 26.75 28.6646 26.75H24.5354C24.3037 27.644 23.7817 28.4358 23.0513 29.001C22.3209 29.5662 21.4235 29.8729 20.5 29.8729C19.5765 29.8729 18.6791 29.5662 17.9487 29.001C17.2183 28.4358 16.6963 27.644 16.4646 26.75H12.3354C12.1401 26.75 11.948 26.7001 11.7774 26.605C11.6068 26.5099 11.4633 26.3728 11.3606 26.2066C11.2579 26.0405 11.1994 25.8508 11.1906 25.6557C11.1818 25.4605 11.2231 25.2664 11.3104 25.0917L13.2083 21.2958V17.375ZM18.6958 26.75C18.8787 27.0667 19.1417 27.3297 19.4584 27.5125C19.7751 27.6953 20.1343 27.7916 20.5 27.7916C20.8657 27.7916 21.2249 27.6953 21.5416 27.5125C21.8583 27.3297 22.1213 27.0667 22.3042 26.75H18.6958ZM20.5 12.1667C19.1187 12.1667 17.7939 12.7154 16.8172 13.6922C15.8404 14.6689 15.2917 15.9937 15.2917 17.375V21.2958C15.2917 21.6191 15.2164 21.9379 15.0719 22.2271L13.8531 24.6667H27.1479L25.9292 22.2271C25.7843 21.938 25.7087 21.6192 25.7083 21.2958V17.375C25.7083 15.9937 25.1596 14.6689 24.1829 13.6922C23.2061 12.7154 21.8813 12.1667 20.5 12.1667Z" fill="black" fill-opacity="0.6"/>
<circle cx="26" cy="12" r="4" fill="#ED0505"/>
</g>
<defs>
<clipPath id="clip0_21_2">
<rect width="25" height="25" fill="white" transform="translate(8 8)"/>
</clipPath>
</defs>
</svg>
