<svg width="20" height="19" viewBox="0 0 20 19" fill="none" xmlns="http://www.w3.org/2000/svg">
<path fill-rule="evenodd" clip-rule="evenodd" d="M2.592 12.304C0.344001 6.787 4.403 0.75 10.36 0.75H10.681C11.7405 0.75 12.7896 0.958685 13.7685 1.36414C14.7473 1.7696 15.6368 2.36388 16.3859 3.11306C17.1351 3.86225 17.7294 4.75166 18.1349 5.73051C18.5403 6.70936 18.749 7.75849 18.749 8.818C18.749 11.2002 17.8027 13.4848 16.1182 15.1692C14.4338 16.8537 12.1492 17.8 9.767 17.8H1.947C1.79162 17.8001 1.64003 17.752 1.51319 17.6623C1.38634 17.5725 1.2905 17.4456 1.2389 17.2991C1.1873 17.1525 1.18249 16.9935 1.22515 16.8441C1.2678 16.6947 1.3558 16.5622 1.477 16.465L3.448 14.882C3.49014 14.8482 3.52022 14.8018 3.53374 14.7495C3.54726 14.6972 3.54349 14.642 3.523 14.592L2.592 12.304ZM10.36 2.25C5.467 2.25 2.134 7.207 3.98 11.738L4.912 14.027C5.054 14.3759 5.07961 14.7614 4.98503 15.126C4.89044 15.4907 4.68071 15.8151 4.387 16.051L4.078 16.3H9.767C11.7514 16.3 13.6544 15.5117 15.0576 14.1086C16.4607 12.7054 17.249 10.8023 17.249 8.818C17.249 7.07606 16.557 5.40546 15.3253 4.17372C14.0935 2.94198 12.4229 2.25 10.681 2.25H10.36Z" fill="black" stroke="black"/>
</svg>
