<svg width="17" height="17" viewBox="0 0 17 17" fill="none" xmlns="http://www.w3.org/2000/svg">
<path d="M8.5 12.5241L4.51975 8.54275L5.31512 7.73388L7.9375 10.3562V0.625H9.0625V10.3562L11.6838 7.735L12.4803 8.54275L8.5 12.5241ZM2.44187 16.375C1.92437 16.375 1.49237 16.2017 1.14587 15.8553C0.799375 15.5087 0.62575 15.0764 0.625 14.5581V11.8322H1.75V14.5581C1.75 14.7306 1.822 14.8893 1.966 15.034C2.11 15.1788 2.26862 15.2507 2.44187 15.25H14.5581C14.7306 15.25 14.8893 15.178 15.034 15.034C15.1788 14.89 15.2507 14.7314 15.25 14.5581V11.8322H16.375V14.5581C16.375 15.0756 16.2017 15.5076 15.8553 15.8541C15.5087 16.2006 15.0764 16.3743 14.5581 16.375H2.44187Z" fill="black" stroke="black"/>
</svg>
