<svg width="12" height="12" viewBox="0 0 12 12" fill="none" xmlns="http://www.w3.org/2000/svg">
<path d="M6 3.6L3 6.6L3.84 7.44L5.4 5.895L5.4 12H6.6L6.6 5.895L8.16 7.44L9 6.6L6 3.6ZM0.99 9.3C0.67 8.81 0.425 8.285 0.255 7.725C0.085 7.165 0 6.59 0 6C0 5.17 0.1576 4.39 0.4728 3.66C0.788 2.93 1.2154 2.295 1.755 1.755C2.295 1.215 2.93 0.7876 3.66 0.4728C4.39 0.158 5.17 0.0004 6 0C6.83 0 7.61 0.1576 8.34 0.4728C9.07 0.788 9.705 1.2154 10.245 1.755C10.785 2.295 11.2126 2.93 11.5278 3.66C11.843 4.39 12.0004 5.17 12 6C12 6.59 11.915 7.165 11.745 7.725C11.575 8.285 11.33 8.81 11.01 9.3L10.14 8.43C10.36 8.06 10.525 7.67 10.635 7.26C10.745 6.85 10.8 6.43 10.8 6C10.8 4.66 10.335 3.525 9.405 2.595C8.475 1.665 7.34 1.2 6 1.2C4.66 1.2 3.525 1.665 2.595 2.595C1.665 3.525 1.2 4.66 1.2 6C1.2 6.43 1.255 6.85 1.365 7.26C1.475 7.67 1.64 8.06 1.86 8.43L0.99 9.3Z" fill="#2E5A75"/>
</svg>
